<mxfile host="app.diagrams.net" modified="2024-05-09T06:33:29.312Z" agent="Mozilla/5.0 (X11; Linux x86_64) AppleWebKit/537.36 (KHTML, like Gecko) Chrome/115.0.0.0 Safari/537.36" version="24.2.1" etag="YYk6ytudRb0YiLKJiWg1" type="github">
  <diagram name="第 1 页" id="Z992N6UvFfoAvg1E0aa1">
    <mxGraphModel>
      <root>
        <mxCell id="0" />
        <mxCell id="1" parent="0" />
      </root>
    </mxGraphModel>
  </diagram>
</mxfile>
